<svg width="979" height="972" viewBox="0 0 979 972" fill="none" xmlns="http://www.w3.org/2000/svg">
<path fill-rule="evenodd" clip-rule="evenodd" d="M427.894 118.553C522.203 102.773 609.875 -1.54231 696.988 40.9978C783.45 83.2199 771.394 216.493 812.536 306.386C852.505 393.716 936.464 463.317 934.321 559.556C932.079 660.252 874.18 752.907 801.147 817.842C730.944 880.261 636.825 901.221 544.208 906.416C458.004 911.251 364.161 904.134 297.339 846.1C234.826 791.807 251.184 688.585 209.535 615.754C162.219 533.013 50.3491 491.316 39.939 395.988C29.0725 296.481 78.0566 187.609 156.643 131.41C232.766 76.9732 336.414 133.859 427.894 118.553Z" fill="#D9F4FF"/>
</svg>
