<svg width="1420" height="1369" viewBox="0 0 1420 1369" fill="none" xmlns="http://www.w3.org/2000/svg">
<path opacity="0.8" fill-rule="evenodd" clip-rule="evenodd" d="M815.733 1177.65C683.275 1205.77 564.726 1353.43 439.451 1301.99C315.112 1250.92 325.327 1069.4 262.589 950.487C201.64 834.959 79.4364 746.604 77.5388 615.995C75.5535 479.337 152.627 349.608 252.505 256.373C348.512 166.751 480.437 131.622 611.048 117.97C732.614 105.264 865.586 108.214 962.981 182.113C1054.1 251.248 1036.26 392.338 1098.84 488.091C1169.94 596.873 1330.16 645.412 1349.75 773.89C1370.19 908 1306.55 1059.08 1198.38 1140.87C1093.59 1220.09 944.219 1150.37 815.733 1177.65Z" fill="#FFE1EA"/>
</svg>
