<svg width="1118" height="1109" viewBox="0 0 1118 1109" fill="none" xmlns="http://www.w3.org/2000/svg">
<path fill-rule="evenodd" clip-rule="evenodd" d="M488.306 135.29C595.929 117.282 695.98 -1.76009 795.391 46.786C894.06 94.9692 880.302 247.059 927.253 349.643C972.865 449.302 1068.68 528.73 1066.23 638.556C1063.67 753.469 997.599 859.205 914.256 933.308C834.142 1004.54 726.735 1028.46 621.041 1034.39C522.666 1039.9 415.574 1031.78 339.318 965.555C267.979 903.597 286.647 785.802 239.118 702.688C185.122 608.265 57.4576 560.681 45.5777 451.894C33.177 338.339 89.0769 214.096 178.759 149.963C265.628 87.8405 383.91 152.758 488.306 135.29Z" fill="#D9F4FF"/>
</svg>
