<svg width="1488" height="1506" viewBox="0 0 1488 1506" fill="none" xmlns="http://www.w3.org/2000/svg">
<path opacity="0.8" fill-rule="evenodd" clip-rule="evenodd" d="M1136.63 990.879C1072.49 1096.25 1096.28 1267.09 983.895 1317.98C872.349 1368.48 758.422 1248.28 640.398 1215.55C525.738 1183.75 390.81 1209.53 303.057 1129.17C211.239 1045.09 173.418 912.936 174.036 788.474C174.63 668.834 233.787 559.441 306.358 464.342C373.904 375.827 458.955 289.537 568.799 271.163C671.56 253.975 753.93 353.963 856.503 372.321C973.033 393.177 1105.32 317.317 1202.72 384.62C1304.39 454.874 1364.75 591.468 1351.36 714.275C1338.39 833.232 1198.84 888.673 1136.63 990.879Z" fill="#FFE1EA"/>
</svg>
